<mxfile host="app.diagrams.net" modified="2023-05-22T07:50:35.603Z" agent="Mozilla/5.0 (Windows NT 10.0; Win64; x64) AppleWebKit/537.36 (KHTML, like Gecko) Chrome/110.0.0.0 YaBrowser/23.3.3.721 Yowser/2.5 Safari/537.36" etag="-1QwXeMSoVlseYFmjpCO" version="21.3.2" type="device">
  <diagram name="Страница 1" id="zPe7aBgOWd8s7DE_yQY5">
    <mxGraphModel dx="1002" dy="545" grid="1" gridSize="10" guides="1" tooltips="1" connect="1" arrows="1" fold="1" page="1" pageScale="1" pageWidth="827" pageHeight="1169" math="0" shadow="0">
      <root>
        <mxCell id="0" />
        <mxCell id="1" parent="0" />
        <mxCell id="wrxeeJmrParP3sSo6dOM-8" style="edgeStyle=orthogonalEdgeStyle;rounded=0;orthogonalLoop=1;jettySize=auto;html=1;exitX=0.5;exitY=1;exitDx=0;exitDy=0;entryX=0.5;entryY=0;entryDx=0;entryDy=0;" parent="1" source="wrxeeJmrParP3sSo6dOM-1" target="wrxeeJmrParP3sSo6dOM-3" edge="1">
          <mxGeometry relative="1" as="geometry" />
        </mxCell>
        <mxCell id="wrxeeJmrParP3sSo6dOM-1" value="Начало" style="rounded=1;whiteSpace=wrap;html=1;" parent="1" vertex="1">
          <mxGeometry x="230" y="30" width="120" height="30" as="geometry" />
        </mxCell>
        <mxCell id="wrxeeJmrParP3sSo6dOM-2" value="Конец" style="rounded=1;whiteSpace=wrap;html=1;" parent="1" vertex="1">
          <mxGeometry x="670" y="205" width="120" height="30" as="geometry" />
        </mxCell>
        <mxCell id="wrxeeJmrParP3sSo6dOM-9" style="edgeStyle=orthogonalEdgeStyle;rounded=0;orthogonalLoop=1;jettySize=auto;html=1;exitX=0.5;exitY=1;exitDx=0;exitDy=0;entryX=0.5;entryY=0;entryDx=0;entryDy=0;" parent="1" source="wrxeeJmrParP3sSo6dOM-3" target="wrxeeJmrParP3sSo6dOM-4" edge="1">
          <mxGeometry relative="1" as="geometry" />
        </mxCell>
        <mxCell id="wrxeeJmrParP3sSo6dOM-3" value="numbers = [1, 8, 3, 8, 2, 6, 8, 8]&lt;br&gt;index = 0&lt;br&gt;maximum = numbers[index]&lt;br&gt;count_maximal = 0" style="rounded=0;whiteSpace=wrap;html=1;" parent="1" vertex="1">
          <mxGeometry x="185" y="89" width="210" height="61" as="geometry" />
        </mxCell>
        <mxCell id="wrxeeJmrParP3sSo6dOM-10" value="YES" style="edgeStyle=orthogonalEdgeStyle;rounded=0;orthogonalLoop=1;jettySize=auto;html=1;exitX=0.5;exitY=1;exitDx=0;exitDy=0;entryX=0.5;entryY=0;entryDx=0;entryDy=0;" parent="1" source="wrxeeJmrParP3sSo6dOM-4" target="wrxeeJmrParP3sSo6dOM-5" edge="1">
          <mxGeometry relative="1" as="geometry" />
        </mxCell>
        <mxCell id="wrxeeJmrParP3sSo6dOM-13" value="NO" style="edgeStyle=orthogonalEdgeStyle;rounded=0;orthogonalLoop=1;jettySize=auto;html=1;exitX=1;exitY=0.5;exitDx=0;exitDy=0;entryX=0;entryY=0.5;entryDx=0;entryDy=0;" parent="1" source="wrxeeJmrParP3sSo6dOM-4" target="wrxeeJmrParP3sSo6dOM-12" edge="1">
          <mxGeometry relative="1" as="geometry" />
        </mxCell>
        <mxCell id="wrxeeJmrParP3sSo6dOM-4" value="index &amp;lt; numbers.length" style="rhombus;whiteSpace=wrap;html=1;" parent="1" vertex="1">
          <mxGeometry x="210" y="180" width="160" height="80" as="geometry" />
        </mxCell>
        <mxCell id="wrxeeJmrParP3sSo6dOM-11" value="YES" style="edgeStyle=orthogonalEdgeStyle;rounded=0;orthogonalLoop=1;jettySize=auto;html=1;exitX=0.5;exitY=1;exitDx=0;exitDy=0;entryX=0.5;entryY=0;entryDx=0;entryDy=0;" parent="1" source="wrxeeJmrParP3sSo6dOM-5" target="wrxeeJmrParP3sSo6dOM-6" edge="1">
          <mxGeometry relative="1" as="geometry" />
        </mxCell>
        <mxCell id="wrxeeJmrParP3sSo6dOM-15" value="NO" style="edgeStyle=orthogonalEdgeStyle;rounded=0;orthogonalLoop=1;jettySize=auto;html=1;exitX=1;exitY=0.5;exitDx=0;exitDy=0;entryX=0;entryY=0.5;entryDx=0;entryDy=0;" parent="1" source="wrxeeJmrParP3sSo6dOM-5" target="wrxeeJmrParP3sSo6dOM-7" edge="1">
          <mxGeometry relative="1" as="geometry" />
        </mxCell>
        <mxCell id="wrxeeJmrParP3sSo6dOM-5" value="numbers[index] &amp;gt; maximum" style="rhombus;whiteSpace=wrap;html=1;" parent="1" vertex="1">
          <mxGeometry x="185" y="290" width="210" height="80" as="geometry" />
        </mxCell>
        <mxCell id="wrxeeJmrParP3sSo6dOM-21" style="edgeStyle=orthogonalEdgeStyle;rounded=0;orthogonalLoop=1;jettySize=auto;html=1;exitX=0.5;exitY=1;exitDx=0;exitDy=0;entryX=0.5;entryY=0;entryDx=0;entryDy=0;" parent="1" source="wrxeeJmrParP3sSo6dOM-6" target="wrxeeJmrParP3sSo6dOM-20" edge="1">
          <mxGeometry relative="1" as="geometry" />
        </mxCell>
        <mxCell id="wrxeeJmrParP3sSo6dOM-6" value="maximum = numbers[index]&lt;br&gt;count_maximal = 1" style="rounded=0;whiteSpace=wrap;html=1;" parent="1" vertex="1">
          <mxGeometry x="215" y="400" width="150" height="40" as="geometry" />
        </mxCell>
        <mxCell id="wrxeeJmrParP3sSo6dOM-17" value="YES" style="edgeStyle=orthogonalEdgeStyle;rounded=0;orthogonalLoop=1;jettySize=auto;html=1;exitX=0.5;exitY=1;exitDx=0;exitDy=0;entryX=0.5;entryY=0;entryDx=0;entryDy=0;" parent="1" source="wrxeeJmrParP3sSo6dOM-7" target="wrxeeJmrParP3sSo6dOM-16" edge="1">
          <mxGeometry relative="1" as="geometry" />
        </mxCell>
        <mxCell id="2_pcI-qa-DL8OEJcMdhW-1" value="NO" style="edgeStyle=orthogonalEdgeStyle;rounded=0;orthogonalLoop=1;jettySize=auto;html=1;exitX=1;exitY=0.5;exitDx=0;exitDy=0;entryX=0.5;entryY=0;entryDx=0;entryDy=0;" edge="1" parent="1" source="wrxeeJmrParP3sSo6dOM-7" target="wrxeeJmrParP3sSo6dOM-20">
          <mxGeometry relative="1" as="geometry">
            <Array as="points">
              <mxPoint x="690" y="330" />
              <mxPoint x="690" y="470" />
              <mxPoint x="290" y="470" />
            </Array>
          </mxGeometry>
        </mxCell>
        <mxCell id="wrxeeJmrParP3sSo6dOM-7" value="&lt;span style=&quot;color: rgb(0, 0, 0); font-family: Helvetica; font-size: 12px; font-style: normal; font-variant-ligatures: normal; font-variant-caps: normal; font-weight: 400; letter-spacing: normal; orphans: 2; text-align: center; text-indent: 0px; text-transform: none; widows: 2; word-spacing: 0px; -webkit-text-stroke-width: 0px; background-color: rgb(251, 251, 251); text-decoration-thickness: initial; text-decoration-style: initial; text-decoration-color: initial; float: none; display: inline !important;&quot;&gt;numbers[index] == maximum&lt;/span&gt;" style="rhombus;whiteSpace=wrap;html=1;" parent="1" vertex="1">
          <mxGeometry x="460" y="290" width="210" height="80" as="geometry" />
        </mxCell>
        <mxCell id="wrxeeJmrParP3sSo6dOM-14" style="edgeStyle=orthogonalEdgeStyle;rounded=0;orthogonalLoop=1;jettySize=auto;html=1;exitX=1;exitY=0.5;exitDx=0;exitDy=0;entryX=0;entryY=0.5;entryDx=0;entryDy=0;" parent="1" source="wrxeeJmrParP3sSo6dOM-12" target="wrxeeJmrParP3sSo6dOM-2" edge="1">
          <mxGeometry relative="1" as="geometry" />
        </mxCell>
        <mxCell id="wrxeeJmrParP3sSo6dOM-12" value="count_maximal" style="shape=parallelogram;perimeter=parallelogramPerimeter;whiteSpace=wrap;html=1;fixedSize=1;" parent="1" vertex="1">
          <mxGeometry x="500" y="190" width="120" height="60" as="geometry" />
        </mxCell>
        <mxCell id="wrxeeJmrParP3sSo6dOM-23" style="edgeStyle=orthogonalEdgeStyle;rounded=0;orthogonalLoop=1;jettySize=auto;html=1;exitX=0.5;exitY=1;exitDx=0;exitDy=0;entryX=0.5;entryY=0;entryDx=0;entryDy=0;" parent="1" source="wrxeeJmrParP3sSo6dOM-16" target="wrxeeJmrParP3sSo6dOM-20" edge="1">
          <mxGeometry relative="1" as="geometry" />
        </mxCell>
        <mxCell id="wrxeeJmrParP3sSo6dOM-16" value="count_maximal = count_maximal +1" style="rounded=0;whiteSpace=wrap;html=1;" parent="1" vertex="1">
          <mxGeometry x="467.5" y="400" width="195" height="30" as="geometry" />
        </mxCell>
        <mxCell id="wrxeeJmrParP3sSo6dOM-22" style="edgeStyle=orthogonalEdgeStyle;rounded=0;orthogonalLoop=1;jettySize=auto;html=1;exitX=0.5;exitY=1;exitDx=0;exitDy=0;entryX=0.5;entryY=0;entryDx=0;entryDy=0;" parent="1" source="wrxeeJmrParP3sSo6dOM-20" target="wrxeeJmrParP3sSo6dOM-4" edge="1">
          <mxGeometry relative="1" as="geometry">
            <Array as="points">
              <mxPoint x="290" y="530" />
              <mxPoint x="180" y="530" />
              <mxPoint x="180" y="160" />
              <mxPoint x="290" y="160" />
            </Array>
          </mxGeometry>
        </mxCell>
        <mxCell id="wrxeeJmrParP3sSo6dOM-20" value="index = index + 1" style="rounded=0;whiteSpace=wrap;html=1;" parent="1" vertex="1">
          <mxGeometry x="230" y="480" width="120" height="30" as="geometry" />
        </mxCell>
      </root>
    </mxGraphModel>
  </diagram>
</mxfile>
